<?xml version="1.0" encoding="iso-8859-1"?>
<!-- Generator: Adobe Illustrator 19.0.0, SVG Export Plug-In . SVG Version: 6.00 Build 0)  -->
<svg version="1.1" id="Capa_1" xmlns="http://www.w3.org/2000/svg" xmlns:xlink="http://www.w3.org/1999/xlink" x="0px" y="0px"
	 viewBox="0 0 512 512" style="enable-background:new 0 0 512 512;" xml:space="preserve">
<path style="fill:#ACB3BA;" d="M173.867,97.3V53.683c0-4.474,4.267-8.947,8.533-8.947h147.2c4.267,0,8.533,4.474,8.533,8.947V97.3
	H380.8V44.736C380.8,20.131,361.6,0,338.133,0H173.867C150.4,0,131.2,20.131,131.2,44.736V97.3H173.867z"/>
<path style="fill:#40596B;" d="M490.667,92.8H21.333C9.6,92.8,0,102.508,0,114.373V337.66h512V114.373
	C512,102.508,502.4,92.8,490.667,92.8z"/>
<path style="fill:#334A5E;" d="M496,334.933H16v155.733C16,502.4,25.6,512,37.333,512h437.333C486.4,512,496,502.4,496,490.667
	V334.933z"/>
<g>
	<path style="fill:#F2F2F2;" d="M119.467,363.733L119.467,363.733c-8.533,0-14.933-6.4-14.933-14.933v-26.667
		c0-8.533,6.4-14.933,14.933-14.933l0,0c8.533,0,14.933,6.4,14.933,14.933V348.8C134.4,357.333,128,363.733,119.467,363.733z"/>
	<path style="fill:#F2F2F2;" d="M392.533,363.733L392.533,363.733c-8.533,0-14.933-6.4-14.933-14.933v-26.667
		c0-8.533,6.4-14.933,14.933-14.933l0,0c8.533,0,14.933,6.4,14.933,14.933V348.8C407.467,357.333,401.067,363.733,392.533,363.733z"
		/>
</g>
<path style="fill:#FF7058;" d="M344.533,228.267v-27.733l-19.2-4.267c-2.133-6.4-4.267-11.733-7.467-18.133l10.667-17.067
	L308.267,140.8L291.2,151.467c-5.333-3.2-11.733-5.333-18.133-7.467l-4.267-19.2h-27.733L236.8,144
	c-6.4,2.133-11.733,4.267-18.133,7.467L201.6,140.8l-20.267,20.267L192,178.133c-3.2,5.333-5.333,11.733-7.467,18.133l-19.2,4.267
	v27.733l19.2,4.267c2.133,6.4,4.267,11.733,7.467,18.133l-10.667,17.067L201.6,288l17.067-10.667
	c5.333,3.2,11.733,5.333,18.133,7.467l4.267,19.2H268.8l4.267-19.2c6.4-2.133,11.733-4.267,18.133-7.467L308.267,288l20.267-20.267
	l-10.667-17.067c3.2-5.333,5.333-11.733,7.467-18.133L344.533,228.267z"/>
<circle style="fill:#40596B;" cx="256" cy="214.4" r="33.07"/>
<g>
</g>
<g>
</g>
<g>
</g>
<g>
</g>
<g>
</g>
<g>
</g>
<g>
</g>
<g>
</g>
<g>
</g>
<g>
</g>
<g>
</g>
<g>
</g>
<g>
</g>
<g>
</g>
<g>
</g>
</svg>
